# xmcd
#
# Track frame offsets: 
#        150
#        17797
#        45120
#        57535
#        70712
#        91400
#        106482
#        120860
#        138477
#        163355
#
# Disc length: 2384 seconds
#
# Revision: 3
# Processed by: cddbd v1.5.2PL0 Copyright (c) Steve Scherf et al.
# Submitted via: ExactAudioCopy v0.99pb4
#
DISCID=81094e0a
DTITLE=The Tractors - All American Country
DYEAR=2003
DGENRE=Country
TTITLE0=Baby Likes To Rock It
TTITLE1=I Wouldn't Tell You No Lie
TTITLE2=Thirty Days
TTITLE3=Settin' The Woods On Fire
TTITLE4=Tryin' To Get To New Orleans
TTITLE5=Shortenin' Bread
TTITLE6=I've Had Enough
TTITLE7=The Tulsa Shuffle
TTITLE8=The Elvis Thing - Mystery Train
TTITLE9=Linda Lou
EXTD=
EXTT0=
EXTT1=
EXTT2=
EXTT3=
EXTT4=
EXTT5=
EXTT6=
EXTT7=
EXTT8=
EXTT9=
PLAYORDER=
